<svg xmlns="http://www.w3.org/2000/svg" width="886" height="484" viewBox="0 0 886 484">
  <metadata><?xpacket begin="﻿" id="W5M0MpCehiHzreSzNTczkc9d"?>
<x:xmpmeta xmlns:x="adobe:ns:meta/" x:xmptk="Adobe XMP Core 9.1-c001 79.a8d4753, 2023/03/23-08:56:37        ">
   <rdf:RDF xmlns:rdf="http://www.w3.org/1999/02/22-rdf-syntax-ns#">
      <rdf:Description rdf:about=""
            xmlns:xmp="http://ns.adobe.com/xap/1.0/">
         <xmp:CreatorTool>Adobe Photoshop 24.6 (Windows)</xmp:CreatorTool>
      </rdf:Description>
   </rdf:RDF>
</x:xmpmeta>
                                                                                                    
                                                                                                    
                                                                                                    
                                                                                                    
                                                                                                    
                                                                                                    
                                                                                                    
                                                                                                    
                                                                                                    
                                                                                                    
                                                                                                    
                                                                                                    
                                                                                                    
                                                                                                    
                                                                                                    
                                                                                                    
                                                                                                    
                                                                                                    
                                                                                                    
                                                                                                    
                           
<?xpacket end="w"?></metadata>
<defs>
    <style>
      .cls-1 {
        font-size: 7.083px;
        text-anchor: middle;
        font-family: "Comic Sans MS";
      }

      .cls-1, .cls-5 {
        fill: #ff1b1b;
      }

      .cls-2, .cls-4 {
        fill: #3985d6;
      }

      .cls-3 {
        fill: #fff;
      }

      .cls-3, .cls-4, .cls-5 {
        fill-rule: evenodd;
      }
    </style>
  </defs>
  <text id="MaitroBé" class="cls-1" transform="translate(393.738 38.101) scale(6.619)"><tspan x="0">M<tspan class="cls-2">aitroBé</tspan></tspan></text>
  <path id="Color_Fill_3" data-name="Color Fill 3" class="cls-3" d="M530.065,93.607h341.3V469.729h-341.3V93.607ZM133.048,114.5H439.517V427.937H133.048V114.5Z"/>
  <path id="Color_Fill_2" data-name="Color Fill 2" class="cls-4" d="M509.17,51.815l376.122,13.93q-3.483,208.936-6.966,417.913L509.17,476.694V51.815Zm48.756,69.652c-5.782,17.529-9.14,307.63,0,313.435,37,21.8,78.728,5.631,111.444-13.93,11.044-75.511,20.95-98.256-27.861-139.3,25.516-25.889,34.593-36.078,34.826-90.548l-27.861-48.757Zm243.783,0-69.652,55.722,13.93,13.931L836.535,135.4ZM578.822,253.807V156.293c42.822,8.521,52.653,23.622,76.617,48.757q-3.481,17.412-6.965,34.826ZM822.605,434.9q-3.483-20.893-6.966-41.791c-23.6,19.363-25.815,20.648-62.687,13.931q-3.482-10.447-6.965-20.9V316.494c62.808,1.774,96.378,1.439,125.374-34.826-10.511-25.978-11.3-34.91-34.826-48.757-37.717-20.77-86.232-11.191-125.374,0-28.173,76.175-2.338,153.342,34.826,201.991h76.618ZM752.952,246.841l55.722,6.966,27.861,20.9q-3.481,10.447-6.965,20.9H752.952V246.841Zm-174.13,69.653,62.687,13.93q3.482,6.965,6.965,13.931c-5.7,40.79-16.639,44.816-34.826,69.652H578.822V316.494Z"/>
  <path id="Color_Fill_1" data-name="Color Fill 1" class="cls-5" d="M495.239,51.815q-3.481,208.936-6.965,417.914l-313.435,6.965L0.708,253.807,181.8,44.85ZM244.491,379.181q3.483-80.092,6.965-160.2,20.893,20.9,41.792,41.792l62.687-41.792Q348.97,292.108,342,365.25h55.722c2.3-76.327,5.267-170.247-20.9-222.887-15.1,31.4-45.242,41.852-69.652,62.687L209.665,135.4V379.181h34.826Z"/>
</svg>
